<svg width="1050" height="1050" viewBox="0 0 1050 1050" fill="none" xmlns="http://www.w3.org/2000/svg">
<circle cx="525" cy="525" r="525" fill="url(#paint0_linear_0_1)"/>
<ellipse cx="437.469" cy="751.32" rx="118" ry="90.5" transform="rotate(-17.1825 437.469 751.32)" fill="white"/>
<rect x="523" y="178" width="30" height="560" fill="white"/>
<path d="M682.804 398.151C669.196 379.776 623.136 320.838 605.34 302.117C591.383 283.049 563.049 238.186 553 178V354.121C625.579 365.215 643.026 398.151 667.451 429.354C686.991 454.316 694.901 494.763 696.413 511.867C696.064 527.122 694.223 550.697 690.481 564.911C685.735 582.94 664.078 643.149 653.843 671C667.451 650.083 695.924 604.851 700.949 591.26C707.23 574.272 717 519.148 717 508.4C717 497.653 711.417 457.436 708.277 448.075C705.136 438.714 696.413 416.526 682.804 398.151Z" fill="white"/>
<defs>
<linearGradient id="paint0_linear_0_1" x1="903" y1="93" x2="289" y2="1010" gradientUnits="userSpaceOnUse">
<stop stop-color="#D02FE9"/>
<stop offset="1" stop-color="#42029C"/>
</linearGradient>
</defs>
</svg>
