<svg width="1050" height="1050" viewBox="0 0 1050 1050" fill="none" xmlns="http://www.w3.org/2000/svg">
<circle cx="525" cy="525" r="525" fill="url(#paint0_linear_0_1)"/>
<g filter="url(#filter0_f_0_1)">
<ellipse cx="439.469" cy="735.32" rx="118" ry="90.5" transform="rotate(-17.1825 439.469 735.32)" fill="white"/>
<path d="M469.601 832.768C502.937 822.46 530.32 802.652 547.47 778.458C564.628 754.253 571.848 725.068 563.189 697.064C554.53 669.06 532.095 649.044 504.269 638.748C476.457 628.458 442.672 627.564 409.336 637.872C376 648.181 348.617 667.988 331.467 692.182C314.31 716.387 307.089 745.573 315.748 773.577C324.408 801.581 346.842 821.596 374.668 831.892C402.481 842.182 436.265 843.076 469.601 832.768Z" stroke="white" stroke-width="23"/>
</g>
<g filter="url(#filter1_f_0_1)">
<rect x="525" y="162" width="30" height="560" rx="1" fill="white"/>
<rect x="513.5" y="150.5" width="53" height="583" rx="12.5" stroke="white" stroke-width="23"/>
</g>
<g filter="url(#filter2_f_0_1)">
<path d="M684.804 382.151C671.196 363.776 625.136 304.838 607.34 286.117C594.315 268.322 568.771 228.065 557.249 173.853C556.994 172.653 555 172.834 555 174.061V337.262C555 337.756 555.377 338.178 555.865 338.255C627.718 349.478 645.123 382.276 669.451 413.354C688.991 438.316 696.901 478.763 698.413 495.867C698.064 511.122 696.223 534.697 692.481 548.911C688.166 565.305 669.867 616.575 658.888 646.68C658.48 647.799 660.002 648.567 660.646 647.564C675.245 624.815 698.459 587.404 702.949 575.26C709.23 558.272 719 503.148 719 492.4C719 481.653 713.417 441.436 710.277 432.075C707.136 422.714 698.413 400.526 684.804 382.151Z" fill="white"/>
<path d="M670.324 653.775L660.646 647.564L670.324 653.775C677.663 642.34 687.187 627.188 695.462 613.331C703.479 599.907 711.044 586.527 713.735 579.248C717.266 569.699 721.43 550.727 724.634 533.605C726.27 524.861 727.714 516.278 728.755 509.154C729.75 502.338 730.5 496.058 730.5 492.4C730.5 486.084 728.973 472.551 727.201 460.098C725.455 447.829 723.152 434.297 721.179 428.418C717.864 418.536 708.679 395.065 694.046 375.307C680.571 357.112 634.88 298.595 616.199 278.747C603.607 261.428 579.441 222.952 568.498 171.462C566.765 163.309 559.206 161.207 554.979 161.595C550.733 161.984 543.5 165.522 543.5 174.061V337.262C543.5 343.672 548.255 348.705 554.09 349.617C588.322 354.964 608.63 365.26 623.168 377.235C634.988 386.971 643.219 397.854 652.421 410.023C654.972 413.397 657.598 416.869 660.396 420.442C668.914 431.325 675.264 446.143 679.677 460.86C683.943 475.088 686.151 488.376 686.9 496.255C686.519 511.302 684.696 533.31 681.36 545.984C677.216 561.727 659.164 612.359 648.084 642.74C645.59 649.578 649.377 655.76 654.2 658.189C659.051 660.632 666.35 659.968 670.324 653.775Z" stroke="white" stroke-width="23"/>
</g>
<ellipse cx="439.469" cy="735.32" rx="118" ry="90.5" transform="rotate(-17.1825 439.469 735.32)" fill="white"/>
<rect x="525" y="162" width="30" height="560" fill="white"/>
<path d="M684.804 382.151C671.196 363.776 625.136 304.838 607.34 286.117C593.383 267.049 565.049 222.186 555 162V338.121C627.579 349.215 645.026 382.151 669.451 413.354C688.991 438.316 696.901 478.763 698.413 495.867C698.064 511.122 696.223 534.697 692.481 548.911C687.735 566.94 666.078 627.149 655.843 655C669.451 634.083 697.924 588.851 702.949 575.26C709.23 558.272 719 503.148 719 492.4C719 481.653 713.417 441.436 710.277 432.075C707.136 422.714 698.413 400.526 684.804 382.151Z" fill="white"/>
<defs>
<filter id="filter0_f_0_1" x="257.87" y="576.372" width="363.197" height="317.896" filterUnits="userSpaceOnUse" color-interpolation-filters="sRGB">
<feFlood flood-opacity="0" result="BackgroundImageFix"/>
<feBlend mode="normal" in="SourceGraphic" in2="BackgroundImageFix" result="shape"/>
<feGaussianBlur stdDeviation="21.35" result="effect1_foregroundBlur_0_1"/>
</filter>
<filter id="filter1_f_0_1" x="459.3" y="96.3" width="161.4" height="691.4" filterUnits="userSpaceOnUse" color-interpolation-filters="sRGB">
<feFlood flood-opacity="0" result="BackgroundImageFix"/>
<feBlend mode="normal" in="SourceGraphic" in2="BackgroundImageFix" result="shape"/>
<feGaussianBlur stdDeviation="21.35" result="effect1_foregroundBlur_0_1"/>
</filter>
<filter id="filter2_f_0_1" x="489.3" y="107.361" width="295.4" height="606.326" filterUnits="userSpaceOnUse" color-interpolation-filters="sRGB">
<feFlood flood-opacity="0" result="BackgroundImageFix"/>
<feBlend mode="normal" in="SourceGraphic" in2="BackgroundImageFix" result="shape"/>
<feGaussianBlur stdDeviation="21.35" result="effect1_foregroundBlur_0_1"/>
</filter>
<linearGradient id="paint0_linear_0_1" x1="903" y1="93" x2="289" y2="1010" gradientUnits="userSpaceOnUse">
<stop stop-color="#D02FE9"/>
<stop offset="1" stop-color="#42029C"/>
</linearGradient>
</defs>
</svg>
